<svg xmlns="http://www.w3.org/2000/svg" width="24" height="24" viewBox="0 0 24 24">
  <path id="Icon_ionic-md-archive" data-name="Icon ionic-md-archive" d="M26.775,6.375,24.908,4.108a1.9,1.9,0,0,0-1.533-.733h-16a1.9,1.9,0,0,0-1.533.733L3.975,6.375a2.321,2.321,0,0,0-.6,1.666V24.708a2.675,2.675,0,0,0,2.667,2.667H24.708a2.674,2.674,0,0,0,2.667-2.667V8.041A2.32,2.32,0,0,0,26.775,6.375Zm-11.4,16.333L8.042,15.375h4.667V12.708h5.333v2.667h4.667ZM6.175,6.042,7.242,4.708h16l1.267,1.333Z" transform="translate(-3.375 -3.375)" fill="#7c7c7c"/>
</svg>
